<svg width="26" height="27" viewBox="0 0 26 27" fill="none" xmlns="http://www.w3.org/2000/svg">
<g id="Social Icons" clip-path="url(#clip0_1093_422)">
<path id="Vector" d="M12.7899 0.87793C5.73709 0.87793 0.0195312 6.59549 0.0195312 13.6483C0.0195312 19.6371 4.14283 24.6625 9.7051 26.0427V17.5509H7.07185V13.6483H9.7051V11.9667C9.7051 7.62018 11.6723 5.60553 15.9396 5.60553C16.7487 5.60553 18.1448 5.76439 18.7159 5.92274V9.46014C18.4145 9.42847 17.8909 9.41264 17.2407 9.41264C15.1468 9.41264 14.3377 10.2059 14.3377 12.2681V13.6483H18.509L17.7923 17.5509H14.3377V26.3252C20.6611 25.5616 25.5608 20.1776 25.5608 13.6483C25.5603 6.59549 19.8428 0.87793 12.7899 0.87793Z" fill="white"/>
</g>
<defs>
<clipPath id="clip0_1093_422">
<rect width="25.5408" height="25.5408" fill="white" transform="translate(0.0195312 0.87793)"/>
</clipPath>
</defs>
</svg>
