<svg width="27" height="27" viewBox="0 0 27 27" fill="none" xmlns="http://www.w3.org/2000/svg">
<g id="Social Icons" clip-path="url(#clip0_1093_421)">
<path id="Vector" d="M24.5343 0.87793H2.76431C2.26427 0.87793 1.78471 1.07657 1.43113 1.43015C1.07755 1.78373 0.878906 2.2633 0.878906 2.76334V24.5333C0.878906 25.0333 1.07755 25.5129 1.43113 25.8665C1.78471 26.2201 2.26427 26.4187 2.76431 26.4187H24.5343C25.0343 26.4187 25.5139 26.2201 25.8675 25.8665C26.221 25.5129 26.4197 25.0333 26.4197 24.5333V2.76334C26.4197 2.2633 26.221 1.78373 25.8675 1.43015C25.5139 1.07657 25.0343 0.87793 24.5343 0.87793ZM8.49148 22.6355H4.65149V10.438H8.49148V22.6355ZM6.56882 8.74768C6.13324 8.74523 5.70815 8.6138 5.3472 8.36998C4.98624 8.12617 4.7056 7.78089 4.54068 7.37773C4.37577 6.97456 4.33399 6.53158 4.42059 6.10469C4.5072 5.6778 4.71833 5.28614 5.02732 4.97912C5.33631 4.6721 5.72933 4.4635 6.15677 4.37963C6.5842 4.29577 7.0269 4.3404 7.429 4.5079C7.8311 4.67539 8.17456 4.95825 8.41606 5.32076C8.65755 5.68328 8.78625 6.1092 8.7859 6.54479C8.79001 6.83642 8.73537 7.12588 8.62522 7.39594C8.51508 7.666 8.35169 7.91111 8.1448 8.11668C7.93791 8.32225 7.69175 8.48406 7.42099 8.59247C7.15023 8.70088 6.86042 8.75366 6.56882 8.74768ZM22.6453 22.6461H18.8071V15.9825C18.8071 14.0172 17.9717 13.4106 16.8933 13.4106C15.7546 13.4106 14.6372 14.2691 14.6372 16.0321V22.6461H10.7972V10.4469H14.49V12.1372H14.5397C14.9104 11.3869 16.2087 10.1045 18.1899 10.1045C20.3325 10.1045 22.6471 11.3763 22.6471 15.1009L22.6453 22.6461Z" fill="white"/>
</g>
<defs>
<clipPath id="clip0_1093_421">
<rect width="25.5408" height="25.5408" fill="white" transform="translate(0.878906 0.87793)"/>
</clipPath>
</defs>
</svg>
