<svg width="12" height="13" viewBox="0 0 12 13" fill="none" xmlns="http://www.w3.org/2000/svg">
<g id="icon_checkmark_homepage.svg" clip-path="url(#clip0_1665_8083)">
<path id="Vector" fill-rule="evenodd" clip-rule="evenodd" d="M5.85 12.5004C2.61787 12.5004 0 9.88254 0 6.65041C0 3.41829 2.61787 0.800415 5.85 0.800415C9.08212 0.800415 11.7 3.41829 11.7 6.65041C11.7 9.88254 9.08212 12.5004 5.85 12.5004ZM4.68731 9.44379C4.89937 9.44379 5.10413 9.34873 5.24306 9.18054L8.5995 5.20985C8.70919 5.08554 8.76769 4.91735 8.76769 4.74917C8.76769 4.52979 8.67994 4.31773 8.50444 4.17879C8.3655 4.0691 8.21194 4.01792 8.02912 4.01792C7.81706 4.01792 7.61962 4.10566 7.48069 4.27385L4.74581 7.5206L4.13888 6.66504C4.0718 6.57031 3.98304 6.49301 3.88 6.43958C3.77696 6.38615 3.66263 6.35815 3.54656 6.35791C3.393 6.35791 3.25406 6.40179 3.12975 6.48223C2.925 6.61385 2.81531 6.8186 2.81531 7.07454C2.81531 7.2281 2.85919 7.37435 2.94694 7.50598L4.08037 9.12204C4.22662 9.32679 4.43869 9.44379 4.68731 9.44379Z" fill="#3B40F0"/>
</g>
<defs>
<clipPath id="clip0_1665_8083">
<rect width="11.7" height="11.7" fill="white" transform="translate(0 0.800415)"/>
</clipPath>
</defs>
</svg>
