<svg width="49" height="49" viewBox="0 0 49 49" fill="none" xmlns="http://www.w3.org/2000/svg">
<g id="students-icon-bl.svg" clip-path="url(#clip0_1665_8066)">
<g id="Group">
<path id="Vector" d="M17.1572 11.1723C17.1572 8.41914 14.9222 6.18469 12.1684 6.18469C9.41461 6.18469 7.17969 8.41914 7.17969 11.1723C7.17969 13.9255 9.41461 16.1599 12.1684 16.1599C14.9222 16.1599 17.1572 13.9255 17.1572 11.1723ZM12.1684 14.1649C10.5222 14.1649 9.17521 12.8182 9.17521 11.1723C9.17521 9.52639 10.5222 8.17973 12.1684 8.17973C13.8147 8.17973 15.1617 9.52639 15.1617 11.1723C15.1617 12.8182 13.8147 14.1649 12.1684 14.1649Z" fill="black"/>
<path id="Vector_2" d="M35.1205 30.1255H21.152V21.1478C21.152 18.3946 18.917 16.1602 16.1632 16.1602H8.18122C5.42743 16.1602 3.19248 18.3946 3.19248 21.1478V30.1255H1.19697C0.648207 30.1255 0.199219 30.5744 0.199219 31.1231V37.1082C0.199219 37.6568 0.648207 38.1057 1.19697 38.1057H3.19248V47.0834C3.19248 47.632 3.64146 48.0809 4.19022 48.0809H32.1272C32.676 48.0809 33.125 47.632 33.125 47.0834V38.1057H35.1205C35.6693 38.1057 36.1183 37.6568 36.1183 37.1082V31.1231C36.1183 30.5744 35.6693 30.1255 35.1205 30.1255ZM5.18797 21.1478C5.18797 19.5019 6.53494 18.1552 8.18122 18.1552H16.1632C17.8095 18.1552 19.1565 19.5019 19.1565 21.1478V30.1255H17.161V24.1403H15.1655V30.1255H9.17898V24.1403H7.18348V30.1255H5.18797V21.1478ZM31.1295 46.0859H5.18797V38.1057H31.1295V46.0859ZM34.1228 36.1107H2.19472V32.1206H34.1228V36.1107Z" fill="black"/>
<path id="Vector_3" d="M45.0963 0.199829H27.1367C25.4904 0.199829 24.1435 1.54649 24.1435 3.1924V8.76854L20.4419 12.4694C20.1525 12.7587 20.0727 13.1876 20.2223 13.5567C20.372 13.9258 20.7412 14.1752 21.1403 14.1752H24.1336V19.1628C24.1336 20.8087 25.4805 22.1554 27.1268 22.1554H45.0863C46.7326 22.1554 48.0796 20.8087 48.0796 19.1628V3.1924C48.0796 1.54649 46.7326 0.199829 45.0863 0.199829H45.0963ZM46.094 19.1528C46.094 19.7014 45.6451 20.1503 45.0963 20.1503H27.1367C26.588 20.1503 26.139 19.7014 26.139 19.1528V13.1677C26.139 12.619 25.69 12.1702 25.1412 12.1702H23.5548L25.8396 9.88576C26.0293 9.69623 26.129 9.44685 26.129 9.17752V3.1924C26.129 2.64376 26.5781 2.19488 27.1268 2.19488H45.0863C45.6351 2.19488 46.0841 2.64376 46.0841 3.1924V19.1528H46.094Z" fill="black"/>
<path id="Vector_4" d="M39.1103 5.18762H29.1328V7.18267H39.1103V5.18762Z" fill="black"/>
<path id="Vector_5" d="M43.1014 10.1749H29.1328V12.17H43.1014V10.1749Z" fill="black"/>
<path id="Vector_6" d="M43.1014 15.1627H29.1328V17.1578H43.1014V15.1627Z" fill="black"/>
<path id="Vector_7" d="M43.0966 5.18762H41.1016V7.18267H43.0966V5.18762Z" fill="black"/>
<path id="Vector_8" d="M29.1318 42.0956H27.1367V44.0906H29.1318V42.0956Z" fill="black"/>
<path id="Vector_9" d="M25.1435 42.0956H23.1484V44.0906H25.1435V42.0956Z" fill="black"/>
<path id="Vector_10" d="M21.1552 42.0956H19.1602V44.0906H21.1552V42.0956Z" fill="black"/>
</g>
</g>
<defs>
<clipPath id="clip0_1665_8066">
<rect width="47.881" height="47.881" fill="white" transform="translate(0.199219 0.199951)"/>
</clipPath>
</defs>
</svg>
